<svg width="500" height="500" viewBox="0 0 500 500" fill="none" xmlns="http://www.w3.org/2000/svg">
<rect width="500" height="500" fill="white"/>
<path d="M361 374.6H305.2L239.2 268.1L225.1 257.9L229.6 248.9H246.4C260 248.9 270.7 245.5 278.5 238.7C286.5 231.7 290.5 222.2 290.5 210.2C290.5 194.4 286.1 181.3 277.3 170.9C268.5 160.3 255.7 155 238.9 155C227.7 155 217.4 158.3 208 164.9V351.8L239.5 362.6L233.5 374.6H142.3V365.3L170.5 343.1V160.7L139.3 150.5L145.3 138.5H180.1C198.3 138.5 216.2 137.9 233.8 136.7C246.6 135.9 256.1 135.5 262.3 135.5C275.7 135.5 287.6 138.2 298 143.6C308.6 149 316.7 156.3 322.3 165.5C328.1 174.7 331 184.8 331 195.8C331 205.8 327.9 215.4 321.7 224.6C315.5 233.6 307.3 241.5 297.1 248.3C287.1 254.9 276.5 259.9 265.3 263.3L284.8 269.9L331.3 344.9L367 362.6L361 374.6Z" fill="black"/>
</svg>
